<svg width="139" height="32" viewBox="0 0 139 32" fill="none" xmlns="http://www.w3.org/2000/svg">
<path d="M108.729 15.9812C108.729 15.1651 108.729 14.3974 108.703 13.6884C108.685 13.0195 108.619 12.3528 108.505 11.6935C108.399 11.0915 108.211 10.5068 107.947 9.95553C107.668 9.3872 107.296 8.87009 106.845 8.42599C106.206 7.77003 105.446 7.24503 104.607 6.88031C103.699 6.51181 102.727 6.32914 101.748 6.34306C100.765 6.33033 99.7888 6.51293 98.8765 6.88031C98.0326 7.24005 97.2675 7.76277 96.6251 8.41865C96.1754 8.86249 95.8044 9.37971 95.5279 9.9482C95.2661 10.4995 95.0813 11.0843 94.9786 11.6862C94.8674 12.3457 94.8038 13.0124 94.7881 13.681C94.7705 14.39 94.7618 15.1577 94.7662 15.9739C94.7705 16.79 94.7662 17.5519 94.7881 18.2653C94.8038 18.9339 94.8674 19.6006 94.9786 20.2601C95.0813 20.862 95.2661 21.4468 95.5279 21.9981C95.8055 22.5659 96.1764 23.083 96.6251 23.5276C97.2665 24.1841 98.0318 24.706 98.8765 25.0631C99.7882 25.4328 100.764 25.6165 101.748 25.6032C102.727 25.6177 103.7 25.434 104.607 25.0631C105.446 24.7032 106.207 24.1815 106.845 23.5276C107.295 23.0827 107.667 22.5658 107.947 21.9981C108.211 21.4469 108.399 20.8622 108.505 20.2601C108.618 19.6027 108.683 18.938 108.7 18.2711C108.722 17.5577 108.732 16.7944 108.726 15.9798L108.729 15.9812ZM105.038 15.9812C105.038 16.8854 105.025 17.6385 104.994 18.2374C104.976 18.7293 104.928 19.2196 104.847 19.7053C104.792 20.0288 104.694 20.3434 104.554 20.6403C104.441 20.8796 104.293 21.1008 104.115 21.2965C103.84 21.6119 103.499 21.8625 103.116 22.0304C102.685 22.2152 102.221 22.3091 101.752 22.3064C101.281 22.3084 100.815 22.2146 100.381 22.0304C99.9887 21.8656 99.6383 21.6148 99.3556 21.2965C99.1763 21.1016 99.0281 20.8803 98.9161 20.6403C98.7805 20.3431 98.6868 20.0284 98.6378 19.7053C98.5595 19.2194 98.5106 18.7292 98.4913 18.2374C98.4649 17.6385 98.4517 16.8864 98.4517 15.9812C98.4517 15.077 98.4649 14.3225 98.4913 13.7236C98.5107 13.2318 98.5596 12.7416 98.6378 12.2557C98.6868 11.9326 98.7805 11.6179 98.9161 11.3207C99.0284 11.0808 99.1766 10.8596 99.3556 10.6645C99.6387 10.3466 99.989 10.0959 100.381 9.93058C100.814 9.74434 101.281 9.65036 101.752 9.65462C102.221 9.64974 102.686 9.74376 103.116 9.93058C103.498 10.099 103.84 10.3495 104.115 10.6645C104.293 10.8605 104.441 11.0816 104.554 11.3207C104.694 11.6176 104.792 11.9322 104.847 12.2557C104.927 12.7414 104.976 13.2317 104.994 13.7236C105.026 14.321 105.038 15.0755 105.038 15.9812Z" fill="white"/>
<path d="M138.144 6.83319C138.142 6.65469 137.998 6.51038 137.82 6.50879H134.774C134.596 6.50959 134.451 6.65436 134.451 6.83319V18.1066L127.024 6.5998C126.974 6.522 126.93 6.50879 126.82 6.50879H123.996C123.818 6.51116 123.675 6.65502 123.672 6.83319V25.126C123.675 25.304 123.818 25.4474 123.996 25.449H127.04C127.218 25.4482 127.361 25.3041 127.362 25.126V13.8233L134.791 25.3565C134.842 25.4343 134.883 25.4475 134.994 25.4475H137.817C137.995 25.4467 138.139 25.3028 138.141 25.1246L138.144 6.83319Z" fill="white"/>
<path d="M117.729 6.83319C117.728 6.65436 117.584 6.50959 117.405 6.50879H114.363C114.184 6.50959 114.04 6.65436 114.039 6.83319V25.1246C114.04 25.3034 114.184 25.4482 114.363 25.449H117.405C117.584 25.4482 117.728 25.3034 117.729 25.1246V6.83319Z" fill="white"/>
<path d="M81.307 15.981C81.307 15.0709 81.3172 14.3134 81.3436 13.7101C81.3615 13.2182 81.4104 12.728 81.4901 12.2422C81.7713 10.6129 83.0164 9.65142 84.6058 9.65142C85.6429 9.66023 86.5834 10.0448 87.184 10.9197C87.456 11.3281 87.6543 11.7812 87.7699 12.2584C87.7788 12.3087 87.8246 12.3437 87.8754 12.3391H91.457C91.5082 12.3391 91.5273 12.3039 91.5185 12.254C91.1274 10.0331 89.9452 8.03821 87.8563 7.05032C86.8297 6.57401 85.7092 6.33569 84.578 6.35307C82.5614 6.35307 80.8626 7.04494 79.4818 8.42867C78.6934 9.19862 78.1552 10.1891 77.9378 11.2705C77.7269 12.3352 77.6204 13.9049 77.6184 15.9795C77.6165 18.0541 77.7229 19.6233 77.9378 20.687C78.1534 21.7698 78.69 22.7623 79.4774 23.5347C80.8573 24.9175 82.556 25.6089 84.5736 25.6089C85.7046 25.626 86.825 25.3882 87.8519 24.9131C89.9408 23.9252 91.123 21.9303 91.5141 19.7094C91.5229 19.658 91.5038 19.6243 91.4526 19.6243H87.8695C87.8186 19.6189 87.7723 19.6543 87.764 19.705C87.6481 20.1816 87.4498 20.6342 87.1781 21.0422C86.5775 21.923 85.6371 22.3032 84.6 22.3105C83.0106 22.3105 81.7654 21.3505 81.4842 19.7211C81.4046 19.2354 81.3557 18.7452 81.3377 18.2533C81.3172 17.647 81.307 16.8881 81.307 15.981Z" fill="white"/>
<path d="M43.479 6.83319C43.4782 6.65436 43.3337 6.50959 43.1553 6.50879H40.1128C39.9343 6.50959 39.7898 6.65436 39.789 6.83319V25.126C39.7906 25.3043 39.9349 25.4482 40.1128 25.4491H43.1553C43.3332 25.4482 43.4774 25.3043 43.479 25.126V19.7565L45.9209 16.831L50.9366 25.3521C50.9752 25.4149 51.0447 25.452 51.1182 25.4491H54.8155C54.9855 25.4491 55.0162 25.3433 54.9313 25.198L48.3643 14.042L54.3893 6.79943C54.5108 6.65264 54.4596 6.51319 54.2691 6.51319H50.2276C50.1784 6.51029 50.1311 6.53236 50.1016 6.57191L43.479 14.5308V6.83319Z" fill="white"/>
<path d="M65.6447 22.3106C63.9322 22.3106 62.3795 20.7224 62.3795 18.8259V6.83319C62.3787 6.65436 62.2342 6.50959 62.0558 6.50879H59.0133C58.8348 6.50959 58.6903 6.65436 58.6895 6.83319V18.7789C58.6895 22.955 61.8067 25.609 65.6447 25.609C69.4826 25.609 72.5998 22.955 72.5998 18.7789V6.83319C72.5982 6.65469 72.4542 6.51038 72.2761 6.50879H69.2321C69.0542 6.51039 68.9106 6.65493 68.9098 6.83319V18.8259C68.9098 20.7209 67.3556 22.3106 65.6447 22.3106Z" fill="white"/>
<path fill-rule="evenodd" clip-rule="evenodd" d="M9.20516 15.9817L18.6506 25.4481L24.6125 19.4738C25.6786 18.5119 27.3096 18.5547 28.324 19.5712C29.3384 20.5877 29.3811 22.2221 28.4212 23.2903L20.5534 31.1758C19.4966 32.2173 17.8016 32.2173 16.7448 31.1758L5.3936 19.7982V26.5608C5.3936 28.0533 4.1862 29.2632 2.6968 29.2632C1.2074 29.2632 0 28.0533 0 26.5608V5.39382C0 3.90134 1.2074 2.69144 2.6968 2.69144C4.1862 2.69144 5.3936 3.90134 5.3936 5.39382V12.1564L16.7433 0.781713C17.7998 -0.260571 19.4954 -0.260571 20.5519 0.781713L28.4255 8.66575C29.3855 9.73404 29.3428 11.3684 28.3284 12.3849C27.314 13.4014 25.683 13.4442 24.6169 12.4823L18.655 6.50795L9.20516 15.9817ZM18.655 13.2764C17.5629 13.2758 16.578 13.9346 16.1597 14.9454C15.7414 15.9563 15.972 17.1201 16.744 17.8941C17.516 18.6682 18.6773 18.8999 19.6863 18.4812C20.6953 18.0626 21.3532 17.076 21.3532 15.9817C21.3536 15.2642 21.0695 14.576 20.5635 14.0683C20.0575 13.5607 19.371 13.2753 18.655 13.2749V13.2764Z" fill="white"/>
</svg>
