<svg width="36" height="36" viewBox="0 0 36 36" fill="none" xmlns="http://www.w3.org/2000/svg">
<circle cx="18" cy="18" r="16.8" stroke="white" stroke-width="2.4"/>
<path d="M26.6902 25.6925C26.6427 25.6925 26.5972 25.6737 26.5636 25.6402C26.5301 25.6068 26.5112 25.5614 26.5112 25.5141V10.7168C26.512 10.4852 26.4555 10.2569 26.3468 10.0523C26.238 9.84761 26.0802 9.67282 25.8875 9.54337C25.6948 9.41392 25.473 9.33381 25.2418 9.31012C25.0106 9.28644 24.7771 9.31991 24.5619 9.40756C22.624 10.2033 20.7965 11.2433 19.124 12.5022C15.7231 15.0654 14.3305 18.2778 14.3305 21.3403C14.3305 24.4029 16.3693 25.6354 18.0232 25.6354C19.6771 25.6354 21.7481 24.1924 21.7481 21.3403C21.7481 18.4882 21.0053 17.3217 20.0369 15.6558C20.9359 15.178 21.901 14.836 22.9009 14.6409C22.9706 14.6269 23.0426 14.6285 23.1117 14.6456C23.1808 14.6627 23.2452 14.6948 23.3003 14.7397C23.3554 14.7845 23.3999 14.841 23.4305 14.905C23.4611 14.9691 23.477 15.039 23.4772 15.11V25.6925C23.4772 26.0123 23.6047 26.319 23.8316 26.5451C24.0586 26.7712 24.3663 26.8982 24.6872 26.8982H27.7087V25.6925H26.6902ZM18.025 24.9933C17.309 24.9933 16.1455 24.0479 16.1455 21.5669C16.1455 19.0858 17.6581 17.4252 18.0411 17.1665C18.3669 17.3966 19.9367 19.0554 19.9367 21.5651C19.9367 24.0747 18.741 24.9933 18.025 24.9933ZM15.0035 15.1581C14.4095 14.8981 13.7854 14.7124 13.1456 14.6052C13.0774 14.5951 13.0078 14.5999 12.9416 14.6192C12.8754 14.6385 12.8142 14.6718 12.7622 14.7169C12.7102 14.762 12.6685 14.8177 12.6402 14.8803C12.6118 14.9429 12.5974 15.0109 12.5978 15.0796V25.6925C12.5978 26.0123 12.4704 26.319 12.2434 26.5451C12.0165 26.7712 11.7087 26.8982 11.3878 26.8982H8.29297V25.6925H9.39201C9.43948 25.6925 9.48501 25.6737 9.51858 25.6402C9.55214 25.6068 9.571 25.5614 9.571 25.5141V10.7346C9.57115 10.5029 9.62854 10.2749 9.73811 10.0706C9.84768 9.86623 10.0061 9.69193 10.1993 9.56305C10.3924 9.43418 10.6145 9.3547 10.8458 9.33162C11.0772 9.30855 11.3107 9.3426 11.5256 9.43075C13.543 10.2422 15.4366 11.3306 17.1515 12.6645C16.3276 13.397 15.6052 14.2356 15.0035 15.1581Z" fill="white"/>
</svg>
