<svg width="196" height="36" viewBox="0 0 196 36" fill="none" xmlns="http://www.w3.org/2000/svg">
<circle cx="18" cy="18" r="16.8" stroke="url(#paint0_linear_6081_47)" stroke-width="2.4"/>
<path d="M26.6902 25.6935C26.6427 25.6935 26.5972 25.6747 26.5636 25.6412C26.5301 25.6078 26.5112 25.5624 26.5112 25.5151V10.7178C26.512 10.4862 26.4555 10.2579 26.3468 10.0532C26.238 9.84858 26.0802 9.67379 25.8875 9.54435C25.6948 9.4149 25.473 9.33479 25.2418 9.3111C25.0106 9.28741 24.7771 9.32088 24.5619 9.40854C22.624 10.2043 20.7965 11.2443 19.124 12.5032C15.7231 15.0663 14.3305 18.2787 14.3305 21.3413C14.3305 24.4039 16.3693 25.6364 18.0232 25.6364C19.6771 25.6364 21.7481 24.1934 21.7481 21.3413C21.7481 18.4892 21.0053 17.3227 20.0369 15.6567C20.9359 15.179 21.901 14.8369 22.9009 14.6418C22.9706 14.6279 23.0426 14.6295 23.1117 14.6466C23.1808 14.6636 23.2452 14.6958 23.3003 14.7406C23.3554 14.7855 23.3999 14.842 23.4305 14.906C23.4611 14.97 23.477 15.04 23.4772 15.1109V25.6935C23.4772 26.0132 23.6047 26.3199 23.8316 26.5461C24.0586 26.7722 24.3663 26.8992 24.6872 26.8992H27.7087V25.6935H26.6902ZM18.025 24.9943C17.309 24.9943 16.1455 24.0489 16.1455 21.5678C16.1455 19.0867 17.6581 17.4261 18.0411 17.1675C18.3669 17.3976 19.9367 19.0564 19.9367 21.566C19.9367 24.0757 18.741 24.9943 18.025 24.9943ZM15.0035 15.1591C14.4095 14.8991 13.7854 14.7133 13.1456 14.6062C13.0774 14.5961 13.0078 14.6009 12.9416 14.6202C12.8754 14.6395 12.8142 14.6728 12.7622 14.7179C12.7102 14.7629 12.6685 14.8187 12.6402 14.8813C12.6118 14.9439 12.5974 15.0119 12.5978 15.0806V25.6935C12.5978 26.0132 12.4704 26.3199 12.2434 26.5461C12.0165 26.7722 11.7087 26.8992 11.3878 26.8992H8.29297V25.6935H9.39201C9.43948 25.6935 9.48501 25.6747 9.51858 25.6412C9.55214 25.6078 9.571 25.5624 9.571 25.5151V10.7356C9.57115 10.5039 9.62854 10.2759 9.73811 10.0715C9.84768 9.8672 10.0061 9.6929 10.1993 9.56403C10.3924 9.43516 10.6145 9.35568 10.8458 9.3326C11.0772 9.30953 11.3107 9.34357 11.5256 9.43173C13.543 10.2431 15.4366 11.3316 17.1515 12.6655C16.3276 13.398 15.6052 14.2366 15.0035 15.1591Z" fill="url(#paint1_linear_6081_47)"/>
<path d="M103.277 25.9691C103.277 26.4512 102.886 26.8419 102.404 26.8419H99.9788C99.4967 26.8419 99.106 26.4512 99.106 25.9691V14.7245C99.106 14.4783 98.9064 14.2788 98.6602 14.2788H97.3464C96.8911 14.2788 96.5219 13.9097 96.5219 13.4543C96.5219 12.999 96.8911 12.6299 97.3464 12.6299H98.6602C98.9064 12.6299 99.106 12.4304 99.106 12.1842V8.27325C99.106 7.79118 99.4967 7.40039 99.9788 7.40039H102.404C102.886 7.40039 103.277 7.79118 103.277 8.27325V12.1842C103.277 12.4304 103.477 12.6299 103.723 12.6299H106.76C107.215 12.6299 107.584 12.999 107.584 13.4543C107.584 13.9097 107.215 14.2788 106.76 14.2788H103.723C103.477 14.2788 103.277 14.4783 103.277 14.7245V25.9691Z" fill="#2E2E2E"/>
<path fill-rule="evenodd" clip-rule="evenodd" d="M80.7272 19.7052C80.7272 20.4435 80.6287 21.1366 80.4319 21.7847C80.235 22.4327 79.9602 23.0316 79.6075 23.5812C79.2629 24.1308 78.8446 24.6271 78.3524 25.0701C77.8602 25.5048 77.3188 25.874 76.7281 26.1775C76.1457 26.481 75.5182 26.7148 74.8455 26.8789C74.181 27.0429 73.4961 27.125 72.7906 27.125C72.0851 27.125 71.4002 27.0429 70.7357 26.8789C70.0713 26.7148 69.4437 26.481 68.8531 26.1775C68.2707 25.874 67.7333 25.5048 67.2412 25.0701C66.749 24.6271 66.3265 24.1308 65.9738 23.5812C65.6292 23.0316 65.3585 22.4327 65.1616 21.7847C64.9648 21.1284 64.8663 20.4353 64.8663 19.7052C64.8663 18.9751 64.9648 18.286 65.1616 17.638C65.3585 16.9817 65.6292 16.3788 65.9738 15.8292C66.3265 15.2796 66.749 14.7874 67.2412 14.3526C67.7333 13.9096 68.2707 13.5364 68.8531 13.2329C69.4437 12.9293 70.0713 12.6955 70.7357 12.5315C71.4002 12.3674 72.0851 12.2854 72.7906 12.2854C73.4961 12.2854 74.181 12.3674 74.8455 12.5315C75.5182 12.6955 76.1457 12.9293 76.7281 13.2329C77.3188 13.5364 77.8602 13.9096 78.3524 14.3526C78.8446 14.7874 79.2629 15.2796 79.6075 15.8292C79.9602 16.3788 80.235 16.9817 80.4319 17.638C80.6287 18.286 80.7272 18.9751 80.7272 19.7052ZM76.4943 19.7052C76.4943 19.3114 76.4697 18.8972 76.4205 18.4624C76.3795 18.0194 76.3057 17.5887 76.199 17.1704C76.0924 16.7438 75.9447 16.3378 75.7561 15.9522C75.5756 15.5585 75.35 15.218 75.0793 14.9309C74.8086 14.6356 74.4846 14.4018 74.1072 14.2295C73.7299 14.0491 73.291 13.9588 72.7906 13.9588C72.3148 13.9588 71.8924 14.0491 71.5232 14.2295C71.1541 14.41 70.83 14.652 70.5511 14.9555C70.2804 15.2508 70.0507 15.5954 69.8621 15.9891C69.6816 16.3829 69.5339 16.793 69.4191 17.2196C69.3043 17.638 69.2222 18.0645 69.173 18.4993C69.1238 18.9259 69.0992 19.3278 69.0992 19.7052C69.0992 20.0825 69.1238 20.4886 69.173 20.9233C69.2222 21.3499 69.3043 21.7765 69.4191 22.203C69.5339 22.6296 69.6816 23.0398 69.8621 23.4335C70.0507 23.8191 70.2804 24.1636 70.5511 24.4671C70.83 24.7624 71.1541 25.0003 71.5232 25.1808C71.8924 25.3613 72.3148 25.4515 72.7906 25.4515C73.2828 25.4515 73.7176 25.3654 74.0949 25.1931C74.4723 25.0126 74.7963 24.7747 75.067 24.4794C75.3459 24.1841 75.5756 23.8437 75.7561 23.4581C75.9365 23.0726 76.0801 22.6665 76.1867 22.24C76.3016 21.8134 76.3795 21.3827 76.4205 20.948C76.4697 20.5132 76.4943 20.0989 76.4943 19.7052Z" fill="#2E2E2E"/>
<path d="M87.5686 22.7321C87.5686 23.7083 87.4456 24.7009 87.1995 25.7099C86.9534 26.7107 86.6048 27.6787 86.1536 28.6138C85.7106 29.5572 85.1774 30.439 84.554 31.2594C84.0689 31.9126 83.5431 32.4944 82.9765 33.0048C82.704 33.2502 82.3027 33.2739 81.9891 33.0839L81.6997 32.9085C81.2625 32.6435 81.1484 32.062 81.4045 31.6195C81.614 31.2576 81.8066 30.871 81.9823 30.4595C82.294 29.7377 82.5524 28.9871 82.7575 28.2078C82.9708 27.4285 83.1307 26.6451 83.2374 25.8576C83.344 25.0619 83.3973 24.3072 83.3973 23.5935V13.5028C83.3973 13.0207 83.7881 12.6299 84.2702 12.6299H86.6958C87.1779 12.6299 87.5686 13.0207 87.5686 13.5028V22.7321Z" fill="#2E2E2E"/>
<path d="M93.5573 26.8419C94.0393 26.8419 94.4301 26.4512 94.4301 25.9691V13.5151C94.4301 13.033 94.0393 12.6422 93.5573 12.6422H91.1317C90.6496 12.6422 90.2588 13.033 90.2588 13.5151V25.9691C90.2588 26.4512 90.6496 26.8419 91.1317 26.8419H93.5573Z" fill="#2E2E2E"/>
<path fill-rule="evenodd" clip-rule="evenodd" d="M122.85 21.7847C123.046 21.1366 123.145 20.4435 123.145 19.7052C123.145 18.9751 123.046 18.286 122.85 17.638C122.653 16.9817 122.378 16.3788 122.025 15.8292C121.681 15.2796 121.262 14.7874 120.77 14.3526C120.278 13.9096 119.736 13.5364 119.146 13.2329C118.563 12.9293 117.936 12.6955 117.263 12.5315C116.599 12.3674 115.914 12.2854 115.208 12.2854C114.503 12.2854 113.818 12.3674 113.153 12.5315C112.489 12.6955 111.861 12.9293 111.271 13.2329C110.688 13.5364 110.151 13.9096 109.659 14.3526C109.167 14.7874 108.744 15.2796 108.391 15.8292C108.047 16.3788 107.776 16.9817 107.579 17.638C107.383 18.286 107.284 18.9751 107.284 19.7052C107.284 20.4353 107.383 21.1284 107.579 21.7847C107.776 22.4327 108.047 23.0316 108.391 23.5812C108.744 24.1308 109.167 24.6271 109.659 25.0701C110.151 25.5048 110.688 25.874 111.271 26.1775C111.861 26.481 112.489 26.7148 113.153 26.8789C113.818 27.0429 114.503 27.125 115.208 27.125C115.914 27.125 116.599 27.0429 117.263 26.8789C117.936 26.7148 118.563 26.481 119.146 26.1775C119.736 25.874 120.278 25.5048 120.77 25.0701C121.262 24.6271 121.681 24.1308 122.025 23.5812C122.378 23.0316 122.653 22.4327 122.85 21.7847ZM118.838 18.4624C118.887 18.8972 118.912 19.3114 118.912 19.7052C118.912 20.0989 118.887 20.5132 118.838 20.948C118.797 21.3827 118.719 21.8134 118.604 22.24C118.498 22.6665 118.354 23.0726 118.174 23.4581C117.993 23.8437 117.764 24.1841 117.485 24.4794C117.214 24.7747 116.89 25.0126 116.513 25.1931C116.135 25.3654 115.701 25.4515 115.208 25.4515C114.733 25.4515 114.31 25.3613 113.941 25.1808C113.572 25.0003 113.248 24.7624 112.969 24.4671C112.698 24.1636 112.468 23.8191 112.28 23.4335C112.099 23.0398 111.952 22.6296 111.837 22.203C111.722 21.7765 111.64 21.3499 111.591 20.9233C111.542 20.4886 111.517 20.0825 111.517 19.7052C111.517 19.3278 111.542 18.9259 111.591 18.4993C111.64 18.0645 111.722 17.638 111.837 17.2196C111.952 16.793 112.099 16.3829 112.28 15.9891C112.468 15.5954 112.698 15.2508 112.969 14.9555C113.248 14.652 113.572 14.41 113.941 14.2295C114.31 14.0491 114.733 13.9588 115.208 13.9588C115.709 13.9588 116.148 14.0491 116.525 14.2295C116.902 14.4018 117.226 14.6356 117.497 14.9309C117.768 15.218 117.993 15.5585 118.174 15.9522C118.362 16.3378 118.51 16.7438 118.617 17.1704C118.723 17.5887 118.797 18.0194 118.838 18.4624Z" fill="#2E2E2E"/>
<path d="M140.988 21.4278C140.988 22.1907 140.89 22.8634 140.693 23.4458C140.505 24.0282 140.234 24.5327 139.881 24.9593C139.537 25.3859 139.126 25.7427 138.651 26.0298C138.175 26.3169 137.654 26.5466 137.088 26.7189C136.53 26.8912 135.935 27.0142 135.304 27.088C134.68 27.1619 134.044 27.1988 133.396 27.1988C132.543 27.1988 131.756 27.1332 131.034 27.0019C130.312 26.8789 129.631 26.682 128.991 26.4113C128.36 26.1324 127.749 25.7755 127.158 25.3408C126.771 25.0522 126.385 24.722 125.998 24.3503C125.661 24.0259 125.67 23.4903 125.999 23.1569L126.989 22.1515C127.43 21.7046 128.194 21.8552 128.554 22.3695C128.652 22.5099 128.757 22.6472 128.868 22.7814C129.27 23.2572 129.709 23.6673 130.185 24.0118C130.669 24.3564 131.169 24.6271 131.686 24.824C132.203 25.0208 132.691 25.1193 133.15 25.1193C133.692 25.1193 134.2 25.0824 134.676 25.0085C135.152 24.9265 135.566 24.7952 135.919 24.6148C136.272 24.4343 136.546 24.1964 136.743 23.9011C136.948 23.5976 137.051 23.2202 137.051 22.7691C137.051 22.4245 136.973 22.1292 136.817 21.8831C136.661 21.637 136.456 21.4278 136.202 21.2556C135.956 21.0751 135.673 20.9233 135.353 20.8003C135.033 20.6772 134.705 20.5747 134.369 20.4927C134.04 20.4024 133.716 20.3245 133.396 20.2589C133.077 20.1851 132.794 20.1112 132.547 20.0374C132.063 19.8979 131.559 19.7503 131.034 19.5944C130.509 19.4304 129.992 19.2458 129.484 19.0407C128.975 18.8356 128.491 18.6018 128.032 18.3393C127.58 18.0686 127.183 17.7528 126.838 17.3919C126.493 17.0227 126.219 16.6003 126.014 16.1245C125.808 15.6405 125.706 15.0868 125.706 14.4633C125.706 13.7168 125.796 13.0565 125.977 12.4823C126.165 11.8998 126.428 11.3953 126.764 10.9688C127.1 10.5422 127.498 10.1854 127.958 9.89826C128.417 9.60295 128.922 9.36916 129.471 9.19689C130.021 9.01642 130.603 8.88927 131.218 8.81544C131.842 8.73341 132.478 8.69239 133.126 8.69239C134.012 8.69239 134.816 8.77442 135.537 8.93849C136.268 9.10255 136.94 9.33634 137.555 9.63986C138.171 9.94338 138.733 10.3084 139.241 10.735C139.553 10.9874 139.853 11.2577 140.141 11.5459C140.463 11.869 140.445 12.3892 140.125 12.7145L139.182 13.6706C138.725 14.1348 137.926 13.9503 137.576 13.4008C137.507 13.293 137.435 13.1877 137.359 13.0852C137.014 12.6094 136.628 12.2034 136.202 11.867C135.775 11.5225 135.328 11.26 134.861 11.0795C134.393 10.8908 133.942 10.7965 133.507 10.7965C132.941 10.7965 132.42 10.8375 131.944 10.9196C131.469 10.9934 131.059 11.1205 130.714 11.301C130.378 11.4733 130.115 11.7112 129.926 12.0147C129.738 12.31 129.643 12.6791 129.643 13.1221C129.643 13.4749 129.713 13.7743 129.853 14.0204C129.992 14.2665 130.177 14.4756 130.406 14.6479C130.644 14.8202 130.911 14.9637 131.206 15.0786C131.502 15.1852 131.805 15.2796 132.117 15.3616C132.437 15.4436 132.748 15.5174 133.052 15.5831C133.364 15.6405 133.647 15.7061 133.901 15.7799C134.393 15.9194 134.91 16.0671 135.451 16.2229C135.993 16.3788 136.526 16.5634 137.051 16.7766C137.576 16.9817 138.076 17.2196 138.552 17.4903C139.028 17.761 139.446 18.085 139.807 18.4624C140.168 18.8315 140.455 19.2622 140.669 19.7544C140.882 20.2384 140.988 20.7962 140.988 21.4278Z" fill="#2E2E2E"/>
<path fill-rule="evenodd" clip-rule="evenodd" d="M175.505 26.8419C175.987 26.8419 176.378 26.4512 176.378 25.9691V13.5028C176.378 13.0207 175.987 12.6299 175.505 12.6299H175.273C174.966 12.6299 174.681 12.7914 174.524 13.055L173.666 14.4908C173.375 14.9778 172.61 14.9127 172.281 14.4505C172.249 14.405 172.216 14.3601 172.182 14.3157C171.87 13.8891 171.505 13.5282 171.087 13.2329C170.676 12.9293 170.221 12.6955 169.721 12.5315C169.228 12.3674 168.708 12.2854 168.158 12.2854C167.075 12.2854 166.107 12.4782 165.254 12.8637C164.401 13.2493 163.679 13.7784 163.088 14.451C162.498 15.1155 162.047 15.8989 161.735 16.8012C161.423 17.7036 161.267 18.6716 161.267 19.7052C161.267 20.7388 161.423 21.7067 161.735 22.6091C162.047 23.5114 162.498 24.299 163.088 24.9716C163.679 25.6361 164.401 26.1611 165.254 26.5466C166.107 26.9322 167.075 27.125 168.158 27.125C168.986 27.125 169.745 26.965 170.434 26.6451C170.787 26.4793 171.113 26.2696 171.413 26.0159C171.7 25.773 172.219 25.958 172.219 26.3341C172.219 26.6146 172.446 26.8419 172.726 26.8419H175.505ZM172.132 18.5362C172.173 18.9464 172.194 19.336 172.194 19.7052C172.194 20.0333 172.169 20.3983 172.12 20.8003C172.071 21.194 171.993 21.5919 171.886 21.9939C171.78 22.3958 171.64 22.7855 171.468 23.1628C171.296 23.5402 171.082 23.8765 170.828 24.1718C170.582 24.4671 170.291 24.705 169.954 24.8855C169.626 25.0578 169.249 25.1439 168.822 25.1439C168.355 25.1439 167.949 25.0619 167.604 24.8978C167.26 24.7255 166.964 24.4999 166.718 24.221C166.472 23.9339 166.267 23.6058 166.103 23.2366C165.947 22.8675 165.824 22.4819 165.734 22.08C165.644 21.678 165.578 21.272 165.537 20.8618C165.504 20.4517 165.488 20.0661 165.488 19.7052C165.488 19.3442 165.504 18.9628 165.537 18.5608C165.578 18.1507 165.644 17.7446 165.734 17.3427C165.824 16.9407 165.947 16.5551 166.103 16.186C166.267 15.8169 166.472 15.4928 166.718 15.2139C166.964 14.9268 167.26 14.7012 167.604 14.5372C167.949 14.3649 168.355 14.2788 168.822 14.2788C169.29 14.2788 169.7 14.3608 170.053 14.5249C170.406 14.6889 170.705 14.9145 170.951 15.2016C171.205 15.4805 171.411 15.8046 171.566 16.1737C171.73 16.5346 171.858 16.9161 171.948 17.318C172.038 17.72 172.1 18.1261 172.132 18.5362Z" fill="#2E2E2E"/>
<path fill-rule="evenodd" clip-rule="evenodd" d="M194.179 19.7052C194.179 20.7388 194.023 21.7067 193.711 22.6091C193.399 23.5114 192.948 24.299 192.358 24.9716C191.767 25.6361 191.045 26.1611 190.192 26.5466C189.339 26.9322 188.371 27.125 187.288 27.125C186.459 27.125 185.697 26.965 184.999 26.6451C184.909 26.6019 184.82 26.5557 184.732 26.5066C184.169 26.1893 183.227 26.5433 183.227 27.1898V32.5275C183.227 33.0096 182.837 33.4004 182.355 33.4004H179.941C179.459 33.4004 179.068 33.0096 179.068 32.5275V13.5028C179.068 13.0207 179.459 12.6299 179.941 12.6299H180.173C180.48 12.6299 180.764 12.7914 180.922 13.055L181.78 14.4908C182.071 14.9778 182.834 14.9122 183.158 14.4465C183.188 14.4024 183.22 14.3588 183.252 14.3157C183.572 13.8891 183.937 13.5282 184.347 13.2329C184.765 12.9293 185.221 12.6955 185.713 12.5315C186.213 12.3674 186.738 12.2854 187.288 12.2854C188.371 12.2854 189.339 12.4782 190.192 12.8637C191.045 13.2493 191.767 13.7784 192.358 14.451C192.948 15.1155 193.399 15.8989 193.711 16.8012C194.023 17.7036 194.179 18.6716 194.179 19.7052ZM189.958 19.7052C189.958 19.3442 189.938 18.9628 189.897 18.5608C189.864 18.1507 189.802 17.7446 189.712 17.3427C189.622 16.9407 189.495 16.5551 189.331 16.186C189.175 15.8169 188.974 15.4928 188.728 15.2139C188.482 14.9268 188.182 14.7012 187.829 14.5372C187.485 14.3649 187.083 14.2788 186.624 14.2788C186.148 14.2788 185.733 14.3608 185.381 14.5249C185.036 14.6889 184.737 14.9145 184.482 15.2016C184.236 15.4805 184.031 15.8046 183.867 16.1737C183.711 16.5346 183.588 16.9161 183.498 17.318C183.408 17.72 183.342 18.1261 183.301 18.5362C183.268 18.9464 183.252 19.336 183.252 19.7052C183.252 20.0333 183.277 20.3983 183.326 20.8003C183.375 21.194 183.453 21.5919 183.56 21.9939C183.666 22.3958 183.806 22.7855 183.978 23.1628C184.15 23.5402 184.359 23.8765 184.606 24.1718C184.86 24.4671 185.151 24.705 185.479 24.8855C185.816 25.0578 186.197 25.1439 186.624 25.1439C187.091 25.1439 187.497 25.0619 187.842 24.8978C188.186 24.7255 188.482 24.4999 188.728 24.221C188.974 23.9339 189.175 23.6058 189.331 23.2366C189.495 22.8675 189.622 22.4819 189.712 22.08C189.802 21.678 189.864 21.272 189.897 20.8618C189.938 20.4517 189.958 20.0661 189.958 19.7052Z" fill="#2E2E2E"/>
<path d="M60.4066 8.80199C59.8772 8.80022 59.367 9.00083 58.9796 9.36301L58.9518 9.38741C58.9148 9.42196 58.8817 9.45853 58.8496 9.49404C58.8397 9.50508 58.8298 9.51603 58.8199 9.52677C58.8098 9.53517 58.8005 9.54451 58.7921 9.55466C58.7362 9.62054 58.6852 9.69041 58.6393 9.76372L54.5458 15.3981L50.3585 9.64874V9.6313C50.0935 9.26943 49.7206 9.0016 49.2938 8.8666C48.8669 8.73161 48.4084 8.73647 47.9845 8.88047C47.5606 9.02447 47.1935 9.30013 46.9361 9.66754C46.6788 10.035 46.5446 10.475 46.5531 10.9241L46.5531 26.2901C46.5531 26.7722 46.9439 27.163 47.426 27.163H49.8988C50.3809 27.163 50.7717 26.7722 50.7717 26.2901V14.4085L53.5806 18.1509C53.6929 18.3003 53.8382 18.4214 54.0051 18.5049C54.1719 18.5883 54.3559 18.6317 54.5423 18.6317C54.7288 18.6317 54.9127 18.5883 55.0796 18.5049C55.2465 18.4214 55.3918 18.3003 55.5041 18.1509L58.2817 14.426V26.2936C58.2817 26.7757 58.6725 27.1665 59.1546 27.1665H61.6448C62.1268 27.1665 62.5176 26.7757 62.5176 26.2936V10.9241C62.5185 10.6454 62.4646 10.3693 62.3589 10.1117C62.2532 9.85405 62.0978 9.61992 61.9016 9.42273C61.7054 9.22554 61.4724 9.06919 61.2158 8.96267C60.9593 8.85615 60.6843 8.80153 60.4066 8.80199Z" fill="#2E2E2E"/>
<path d="M147.102 26.4851C146.736 26.8306 146.252 27.022 145.751 27.0203C145.488 27.0207 145.227 26.9686 144.985 26.867C144.742 26.7654 144.521 26.6162 144.335 26.4281C144.149 26.24 144.002 26.0167 143.902 25.7709C143.802 25.5251 143.751 25.2618 143.752 24.996V13.4347C143.752 12.9526 144.142 12.5618 144.624 12.5618L146.89 12.5618C147.373 12.5618 147.763 12.9526 147.763 13.4347V21.6553L150.394 18.102C150.5 17.9595 150.638 17.8439 150.796 17.7643C150.954 17.6847 151.128 17.6433 151.305 17.6433C151.481 17.6433 151.656 17.6847 151.814 17.7643C151.972 17.8439 152.109 17.9595 152.216 18.102L154.876 21.672V13.438C154.876 12.956 155.267 12.5652 155.749 12.5652L157.998 12.5652C158.481 12.5652 158.871 12.956 158.871 13.438V24.996C158.879 25.4243 158.752 25.8441 158.509 26.1946C158.265 26.5451 157.917 26.8081 157.516 26.9454C157.114 27.0828 156.68 27.0874 156.276 26.9586C155.871 26.8299 155.518 26.5744 155.267 26.2292V26.2125L151.302 20.7279L147.425 26.1028C147.381 26.1728 147.333 26.2394 147.28 26.3023C147.272 26.312 147.263 26.3209 147.254 26.3289C147.244 26.3391 147.235 26.3496 147.225 26.3601C147.195 26.394 147.164 26.4289 147.129 26.4618L147.102 26.4851Z" fill="#2E2E2E"/>
<defs>
<linearGradient id="paint0_linear_6081_47" x1="32.0792" y1="3.38614" x2="4.81188" y2="34.0396" gradientUnits="userSpaceOnUse">
<stop stop-color="#16D6A1"/>
<stop offset="1" stop-color="#0BC6DA"/>
</linearGradient>
<linearGradient id="paint1_linear_6081_47" x1="8.29297" y1="27.9105" x2="28.452" y2="9.23281" gradientUnits="userSpaceOnUse">
<stop stop-color="#0AC4DD"/>
<stop offset="1" stop-color="#18D995"/>
</linearGradient>
</defs>
</svg>
