<svg width="32" height="32" viewBox="0 0 32 32" fill="none" xmlns="http://www.w3.org/2000/svg">
<path fill-rule="evenodd" clip-rule="evenodd" d="M18.1811 18.2252L18.2244 18.1819C20.7412 15.6418 20.734 11.5424 18.2028 9.01123C15.6644 6.47282 11.5488 6.47282 9.01041 9.01123C6.472 11.5496 6.472 15.6652 9.01041 18.2036C11.5416 20.7348 15.641 20.742 18.1811 18.2252ZM18.5447 19.2527C15.5986 21.8348 11.1134 21.7208 8.3033 18.9107C5.37437 15.9818 5.37437 11.2331 8.3033 8.30412C11.2322 5.37519 15.981 5.37519 18.9099 8.30412C21.7201 11.1143 21.834 15.5996 19.2518 18.5456L24.2131 23.5069L23.506 24.214L18.5447 19.2527Z" fill="white"/>
</svg>
